<mxfile host="Electron" modified="2024-05-03T10:27:00.539Z" agent="Mozilla/5.0 (Windows NT 10.0; Win64; x64) AppleWebKit/537.36 (KHTML, like Gecko) draw.io/24.1.0 Chrome/120.0.6099.109 Electron/28.1.0 Safari/537.36" etag="1OREU1Ih1ozxHdqTeJHY" version="24.1.0" type="device">
  <diagram name="第 1 页" id="uIp5NcsU-fl5GnidUl2f">
    <mxGraphModel dx="751" dy="557" grid="0" gridSize="10" guides="1" tooltips="1" connect="1" arrows="1" fold="1" page="1" pageScale="1" pageWidth="827" pageHeight="1169" math="0" shadow="0">
      <root>
        <mxCell id="0" />
        <mxCell id="1" parent="0" />
        <mxCell id="pyFnORxo5FOCz-j6r4HV-10" value="" style="edgeStyle=orthogonalEdgeStyle;rounded=0;orthogonalLoop=1;jettySize=auto;html=1;" edge="1" parent="1" source="pyFnORxo5FOCz-j6r4HV-2" target="pyFnORxo5FOCz-j6r4HV-9">
          <mxGeometry relative="1" as="geometry" />
        </mxCell>
        <mxCell id="pyFnORxo5FOCz-j6r4HV-2" value="黑名单" style="rounded=1;whiteSpace=wrap;html=1;fillColor=#fff2cc;strokeColor=#d6b656;" vertex="1" parent="1">
          <mxGeometry x="346" y="226" width="120" height="60" as="geometry" />
        </mxCell>
        <mxCell id="pyFnORxo5FOCz-j6r4HV-17" value="" style="edgeStyle=orthogonalEdgeStyle;rounded=0;orthogonalLoop=1;jettySize=auto;html=1;" edge="1" parent="1" source="pyFnORxo5FOCz-j6r4HV-9" target="pyFnORxo5FOCz-j6r4HV-16">
          <mxGeometry relative="1" as="geometry" />
        </mxCell>
        <mxCell id="pyFnORxo5FOCz-j6r4HV-24" style="edgeStyle=orthogonalEdgeStyle;rounded=0;orthogonalLoop=1;jettySize=auto;html=1;exitX=0;exitY=0.5;exitDx=0;exitDy=0;" edge="1" parent="1" source="pyFnORxo5FOCz-j6r4HV-9">
          <mxGeometry relative="1" as="geometry">
            <mxPoint x="230" y="268" as="targetPoint" />
          </mxGeometry>
        </mxCell>
        <mxCell id="pyFnORxo5FOCz-j6r4HV-9" value="权重" style="whiteSpace=wrap;html=1;rounded=1;fillColor=#d5e8d4;strokeColor=#82b366;" vertex="1" parent="1">
          <mxGeometry x="346" y="330" width="120" height="60" as="geometry" />
        </mxCell>
        <mxCell id="pyFnORxo5FOCz-j6r4HV-25" style="edgeStyle=orthogonalEdgeStyle;rounded=0;orthogonalLoop=1;jettySize=auto;html=1;exitX=0;exitY=0.5;exitDx=0;exitDy=0;" edge="1" parent="1" source="pyFnORxo5FOCz-j6r4HV-16">
          <mxGeometry relative="1" as="geometry">
            <mxPoint x="230" y="362" as="targetPoint" />
          </mxGeometry>
        </mxCell>
        <mxCell id="pyFnORxo5FOCz-j6r4HV-16" value="其他前置规则" style="whiteSpace=wrap;html=1;fillColor=#e1d5e7;strokeColor=#9673a6;rounded=1;" vertex="1" parent="1">
          <mxGeometry x="346" y="440" width="120" height="60" as="geometry" />
        </mxCell>
        <mxCell id="pyFnORxo5FOCz-j6r4HV-18" value="Actor" style="shape=umlActor;verticalLabelPosition=bottom;verticalAlign=top;html=1;outlineConnect=0;" vertex="1" parent="1">
          <mxGeometry x="387" y="44" width="30" height="60" as="geometry" />
        </mxCell>
        <mxCell id="pyFnORxo5FOCz-j6r4HV-21" value="" style="endArrow=classic;html=1;rounded=0;entryX=0.5;entryY=0;entryDx=0;entryDy=0;" edge="1" parent="1" source="pyFnORxo5FOCz-j6r4HV-18" target="pyFnORxo5FOCz-j6r4HV-2">
          <mxGeometry width="50" height="50" relative="1" as="geometry">
            <mxPoint x="217" y="209" as="sourcePoint" />
            <mxPoint x="267" y="159" as="targetPoint" />
          </mxGeometry>
        </mxCell>
        <mxCell id="pyFnORxo5FOCz-j6r4HV-22" value="抽奖" style="text;html=1;align=center;verticalAlign=middle;resizable=0;points=[];autosize=1;strokeColor=none;fillColor=none;" vertex="1" parent="1">
          <mxGeometry x="410" y="144" width="42" height="26" as="geometry" />
        </mxCell>
        <mxCell id="pyFnORxo5FOCz-j6r4HV-23" value="" style="endArrow=classic;html=1;rounded=0;entryX=0;entryY=0.3333333333333333;entryDx=0;entryDy=0;entryPerimeter=0;exitX=0;exitY=0.75;exitDx=0;exitDy=0;" edge="1" parent="1" source="pyFnORxo5FOCz-j6r4HV-2" target="pyFnORxo5FOCz-j6r4HV-18">
          <mxGeometry width="50" height="50" relative="1" as="geometry">
            <mxPoint x="217" y="265" as="sourcePoint" />
            <mxPoint x="267" y="215" as="targetPoint" />
            <Array as="points">
              <mxPoint x="229" y="271" />
              <mxPoint x="229" y="66" />
            </Array>
          </mxGeometry>
        </mxCell>
      </root>
    </mxGraphModel>
  </diagram>
</mxfile>
